<?xml version="1.0" encoding="UTF-8"?>
<svg version="1.1" viewBox="0 0 1280 1280" width="1280" height="1280" xmlns="http://www.w3.org/2000/svg">
<path transform="translate(640,368)" d="m0 0 4 1 4 5 2 6 4 40 5 30 5 24 6 25 4 17 3 7 4 13 8 20 5 13 5 11 4 10 5 10 3 8 8 16 7 17 3 7 14 28 5 12 15 30 4 12 8 16 4 10 5 12 4 9 8 25 4 16 3 20 1 8v36l-2 6-2 14-5 16-4 12-10 19-7 14-5 6-3 6-9 10-6 8h-2l-2 5-33 33-5 2-2 4h-2l-2 4-9 7-10 9-11 8-10 8-16 8-12 2-17-8-6-5-5-3v-2l-5-2-11-8v-2l-5-2-8-7-11-9v-2l-3-1-5-6-4-3v-2l-4-2-4-5-8-6-14-14-3-5-5-5-3-7-5-5-5-8-5-10-3-4-8-16-4-13-3-12-4-28-1-13v-12l1-17 2-11 3-20 3-9 2-10 14-41 7-14 5-12 5-9 5-7 2-10 6-12 3-7 16-32 8-17 4-8 3-8 4-10 5-10 5-12 3-7 5-13 3-7 3-9 5-12 3-10 4-14 2-5 10-40 4-20 4-17 2-10 2-21 3-17 3-6z" fill="#B0B0B1"/>
<path transform="translate(543,708)" d="m0 0h90v85l-20 1-25 4-20 6-16 7-11 6-12 9-7 7-10 13-7 16-1 5v24l6 18 5 10v2h5l-2-8-4-8-1-3v-17l4-14 8-14 9-11 8-8 17-12 16-10 16-7 22-7 18-4h3v23l-12 8-5 3-7 7-7 11-10 19-10 24-4 11-18 53-14 39-1 3h9l26-9 6-4h2l2-6 6-13 2-6 34 1v120l-16-8-5-4-5-3v-2l-5-2-11-8v-2l-5-2-8-7-11-9v-2l-3-1-5-6-4-3v-2l-4-2-4-5-8-6-14-14-3-5-5-5-3-7-5-5-5-8-5-10-3-4-8-16-4-13-3-12-4-28-1-13v-12l1-17 2-11 3-20 3-9 2-10 14-41 7-14 5-12 5-9 3-4z" fill="#E2057B"/>
<path transform="translate(643,707)" d="m0 0h102l11 1 3 5v2h2l4 9 3 8 7 14 4 10 5 12 4 9 8 25 4 16 3 20 1 8v36l-2 6-2 14-5 16-4 12-10 19-7 14-5 6-3 6-9 10-6 8h-2l-2 5-33 33-5 2-2 4h-2l-2 4-9 7-10 9-11 8-10 8-16 8h-4l-1-65v-43l1-13 18-3 15-5 25-12 10-7 13-12 7-7 9-13 5-11 5-17v-22l-4-17-7-11-10-9-14-8-19-7-21-4-31-3-1-1-1-83z" fill="#0095B8"/>
<path transform="translate(644,370)" d="m0 0 4 4 2 6 4 40 5 30 5 24 6 25 4 17 3 7 4 13 8 20 5 13 5 11 4 10 5 10 3 8 8 16 7 17 3 7 14 28 5 12 5 11v3h-110l-1-1-1-55v-265l3-1z" fill="#FDF713"/>
<path transform="translate(632,382)" d="m0 0 2 1v318l-1 1h-87l-20-1 1-8 4-9 3-7 16-32 8-17 4-8 3-8 4-10 5-10 5-12 3-7 5-13 3-7 3-9 5-12 3-10 4-14 2-5 10-40 4-20 4-17 2-10 1-13h2l1-14z" fill="#040506"/>
<path transform="translate(636,797)" d="m0 0h11l21 2 17 6 9 6 6 7 5 11 2 10v23l-4 18-3 11-3 6h-2l-1 5-8 14-11 13-11 11-13 8-17 6-8 1h-20l1-8 3-8 5-17 6-15 15-39 7-15 5-11 7-16 12-18-1-4-16 7-14 7z" fill="#E3047B"/>
<path transform="translate(635,797)" d="m0 0h1l1 20 21-11 8-3 2 2-1 4-11 17-7 16-10 21-17 44-6 15-5 17-4 11-1 5 20-1 11-2 10-3-3 3-2 1-4 7-3 1v99l-1 17h-1v-115h-29l-5-1-2 8-8 17-10 6-24 8h-10l8-24 13-37 12-35 5-14 11-25 9-17 8-11 8-8 9-5 5-3 1-2z" fill="#B1B0B0"/>
<path transform="translate(613,793)" d="m0 0h19l-1 4 2 1-16 4-20 6-16 6-13 7-16 11-12 9-8 8-9 13-6 12-3 11v17l4 9 2 4v6h-5l-8-17-4-13v-24l3-10 7-14 12-14 10-9 13-8 15-7 21-7 14-3z" fill="#BBACAF"/>
<path transform="translate(635,797)" d="m0 0h1l1 20 21-11 8-3 2 2-1 4-11 17-7 16-10 21-17 44-3 7-2-2 1-6 9-25 7-17 5-18-2-14 1-2h-2l2-10-3-1z" fill="#BBACAF"/>
<path transform="translate(575,913)" d="m0 0h1l1 5v13l-8 16-5 9h-2l-1 14v16l5 3 10-1 10-7 4-4 3-4 2-5 2-1-3 9-5 10-10 6-24 8h-10l8-24 13-37z" fill="#BCACAF"/>
<path transform="translate(645,949)" d="m0 0 2 1-5 3-4 7-3 1v99l-1 17h-1v-115h-29l-5-1 4-7 3-2v3l20-1 11-2z" fill="#BCACAF"/>
<path transform="translate(704,827)" d="m0 0 5 5 4 14v16l-4 15-4 6-3 1 1-7 3-15v-23z" fill="#BCACAF"/>
<path transform="translate(705,702)" d="m0 0h48l1 2-2 1h-48l-61-1v-1z" fill="#0095B8"/>
<path transform="translate(647,374)" d="m0 0 2 3 2 10 3 33v7h-1l-5-32z" fill="#B5B5B5"/>
<path transform="translate(606,850)" d="m0 0h1v6l-4 6-5 3v-8l4-5z" fill="#BBACAF"/>
<path transform="translate(655,795)" d="m0 0 5 1-1 2h-12l-11-1v-1z" fill="#BCACAF"/>
<path transform="translate(586,888)" d="m0 0 2 1-1 6-1 2h-3v-7z" fill="#BBACAF"/>
<path transform="translate(654,826)" d="m0 0 1 3-5 9h-1v-6l3-5z" fill="#B2B0B0"/>
<path transform="translate(554,809)" d="m0 0 3 1-8 5-4 1 1-3z" fill="#B3B0B0"/>
</svg>
